HIERARCHY
ROOT mixamorig:Hips
{
	OFFSET 0.000000 201.639420 0.000000
	CHANNELS 6 Xposition Yposition Zposition Xrotation Yrotation Zrotation
	JOINT mixamorig:Spine
	{
		OFFSET 0.006200 19.524994 -2.481800
		CHANNELS 3 Xrotation Yrotation Zrotation
		JOINT mixamorig:Spine1
		{
			OFFSET -0.000900 22.835007 -2.825400
			CHANNELS 3 Xrotation Yrotation Zrotation
			JOINT mixamorig:Spine2
			{
				OFFSET -0.020600 26.552490 -3.193300
				CHANNELS 3 Xrotation Yrotation Zrotation
				JOINT mixamorig:Neck
				{
					OFFSET -0.060000 30.701813 1.352200
					CHANNELS 3 Xrotation Yrotation Zrotation
					JOINT mixamorig:Head
					{
						OFFSET -0.087200 22.547607 3.670900
						CHANNELS 3 Xrotation Yrotation Zrotation
						JOINT mixamorig:HeadTop_End
						{
							OFFSET -0.830600 40.355194 7.893500
							CHANNELS 3 Xrotation Yrotation Zrotation
							End Site
							{
								OFFSET 0.000000 30.592346 0.000000
							}
						}
						JOINT mixamorig:RightEye
						{
							OFFSET -6.302100 18.118591 16.197100
							CHANNELS 3 Xrotation Yrotation Zrotation
							End Site
							{
								OFFSET 0.000000 30.592346 0.000000
							}
						}
						JOINT mixamorig:LeftEye
						{
							OFFSET 6.741500 18.382690 16.401899
							CHANNELS 3 Xrotation Yrotation Zrotation
							End Site
							{
								OFFSET 0.000000 30.592346 0.000000
							}
						}
					}
				}
				JOINT mixamorig:LeftShoulder
				{
					OFFSET 11.924900 18.230499 1.425400
					CHANNELS 3 Xrotation Yrotation Zrotation
					JOINT mixamorig:LeftArm
					{
						OFFSET 25.435989 -0.697632 -5.229300
						CHANNELS 3 Xrotation Yrotation Zrotation
						JOINT mixamorig:LeftForeArm
						{
							OFFSET 54.684776 0.000000 0.000000
							CHANNELS 3 Xrotation Yrotation Zrotation
							JOINT mixamorig:LeftHand
							{
								OFFSET 55.098175 0.000000 0.000000
								CHANNELS 3 Xrotation Yrotation Zrotation
								JOINT mixamorig:LeftHandMiddle1
								{
									OFFSET 23.369751 0.000000 0.000000
									CHANNELS 3 Xrotation Yrotation Zrotation
									JOINT mixamorig:LeftHandMiddle2
									{
										OFFSET 6.378677 0.000000 0.000000
										CHANNELS 3 Xrotation Yrotation Zrotation
										JOINT mixamorig:LeftHandMiddle3
										{
											OFFSET 6.148331 0.000000 0.000000
											CHANNELS 3 Xrotation Yrotation Zrotation
											JOINT mixamorig:LeftHandMiddle4
											{
												OFFSET 6.582504 0.000000 0.000000
												CHANNELS 3 Xrotation Yrotation Zrotation
												End Site
												{
													OFFSET -1.168900 6.395691 1.028606
												}
											}
										}
									}
								}
								JOINT mixamorig:LeftHandThumb1
								{
									OFFSET 7.235672 -3.848206 5.434273
									CHANNELS 3 Xrotation Yrotation Zrotation
									JOINT mixamorig:LeftHandThumb2
									{
										OFFSET 6.568451 -3.792297 3.792300
										CHANNELS 3 Xrotation Yrotation Zrotation
										JOINT mixamorig:LeftHandThumb3
										{
											OFFSET 6.063080 -3.500519 3.500518
											CHANNELS 3 Xrotation Yrotation Zrotation
											JOINT mixamorig:LeftHandThumb4
											{
												OFFSET 4.793182 -2.767334 2.767349
												CHANNELS 3 Xrotation Yrotation Zrotation
												End Site
												{
													OFFSET 0.101639 6.054260 1.275483
												}
											}
										}
									}
								}
								JOINT mixamorig:LeftHandIndex1
								{
									OFFSET 23.101074 -0.309540 4.992809
									CHANNELS 3 Xrotation Yrotation Zrotation
									JOINT mixamorig:LeftHandIndex2
									{
										OFFSET 6.226883 0.000000 0.000000
										CHANNELS 3 Xrotation Yrotation Zrotation
										JOINT mixamorig:LeftHandIndex3
										{
											OFFSET 6.094330 0.000000 0.000000
											CHANNELS 3 Xrotation Yrotation Zrotation
											JOINT mixamorig:LeftHandIndex4
											{
												OFFSET 5.482605 0.000000 0.000000
												CHANNELS 3 Xrotation Yrotation Zrotation
												End Site
												{
													OFFSET -1.427902 5.233032 0.797164
												}
											}
										}
									}
								}
								JOINT mixamorig:LeftHandRing1
								{
									OFFSET 22.299240 0.021149 -3.964172
									CHANNELS 3 Xrotation Yrotation Zrotation
									JOINT mixamorig:LeftHandRing2
									{
										OFFSET 6.321869 0.000000 0.000000
										CHANNELS 3 Xrotation Yrotation Zrotation
										JOINT mixamorig:LeftHandRing3
										{
											OFFSET 5.899796 0.000000 0.000000
											CHANNELS 3 Xrotation Yrotation Zrotation
											JOINT mixamorig:LeftHandRing4
											{
												OFFSET 6.517899 0.000000 0.000000
												CHANNELS 3 Xrotation Yrotation Zrotation
												End Site
												{
													OFFSET -1.637299 6.232208 0.980890
												}
											}
										}
									}
								}
								JOINT mixamorig:LeftHandPinky1
								{
									OFFSET 20.463791 -0.302338 -8.562233
									CHANNELS 3 Xrotation Yrotation Zrotation
									JOINT mixamorig:LeftHandPinky2
									{
										OFFSET 6.908646 0.000000 0.000000
										CHANNELS 3 Xrotation Yrotation Zrotation
										JOINT mixamorig:LeftHandPinky3
										{
											OFFSET 4.622849 0.000000 0.000000
											CHANNELS 3 Xrotation Yrotation Zrotation
											JOINT mixamorig:LeftHandPinky4
											{
												OFFSET 5.216080 0.000000 0.000000
												CHANNELS 3 Xrotation Yrotation Zrotation
												End Site
												{
													OFFSET -0.606308 5.116241 0.814926
												}
											}
										}
									}
								}
							}
						}
					}
				}
				JOINT mixamorig:RightShoulder
				{
					OFFSET -12.001300 18.284088 1.348900
					CHANNELS 3 Xrotation Yrotation Zrotation
					JOINT mixamorig:RightArm
					{
						OFFSET -25.308500 -0.751312 -5.164599
						CHANNELS 3 Xrotation Yrotation Zrotation
						JOINT mixamorig:RightForeArm
						{
							OFFSET -54.684429 0.000000 0.000000
							CHANNELS 3 Xrotation Yrotation Zrotation
							JOINT mixamorig:RightHand
							{
								OFFSET -55.150291 0.000000 0.000000
								CHANNELS 3 Xrotation Yrotation Zrotation
								JOINT mixamorig:RightHandMiddle1
								{
									OFFSET -23.317566 0.000000 0.000000
									CHANNELS 3 Xrotation Yrotation Zrotation
									JOINT mixamorig:RightHandMiddle2
									{
										OFFSET -6.378403 0.000000 0.000000
										CHANNELS 3 Xrotation Yrotation Zrotation
										JOINT mixamorig:RightHandMiddle3
										{
											OFFSET -6.148193 0.000000 0.000000
											CHANNELS 3 Xrotation Yrotation Zrotation
											JOINT mixamorig:RightHandMiddle4
											{
												OFFSET -6.583389 0.000000 0.000000
												CHANNELS 3 Xrotation Yrotation Zrotation
												End Site
												{
													OFFSET 1.171692 6.395905 1.029786
												}
											}
										}
									}
								}
								JOINT mixamorig:RightHandThumb1
								{
									OFFSET -7.190521 -3.860474 5.435846
									CHANNELS 3 Xrotation Yrotation Zrotation
									JOINT mixamorig:RightHandThumb2
									{
										OFFSET -6.567429 -3.791718 3.791708
										CHANNELS 3 Xrotation Yrotation Zrotation
										JOINT mixamorig:RightHandThumb3
										{
											OFFSET -6.062469 -3.500153 3.500166
											CHANNELS 3 Xrotation Yrotation Zrotation
											JOINT mixamorig:RightHandThumb4
											{
												OFFSET -4.792618 -2.767029 2.767022
												CHANNELS 3 Xrotation Yrotation Zrotation
												End Site
												{
													OFFSET -0.100327 6.053253 1.276754
												}
											}
										}
									}
								}
								JOINT mixamorig:RightHandIndex1
								{
									OFFSET -23.048981 -0.310791 4.992554
									CHANNELS 3 Xrotation Yrotation Zrotation
									JOINT mixamorig:RightHandIndex2
									{
										OFFSET -6.227539 0.000000 0.000000
										CHANNELS 3 Xrotation Yrotation Zrotation
										JOINT mixamorig:RightHandIndex3
										{
											OFFSET -6.095047 0.000000 0.000000
											CHANNELS 3 Xrotation Yrotation Zrotation
											JOINT mixamorig:RightHandIndex4
											{
												OFFSET -5.484772 0.000000 0.000000
												CHANNELS 3 Xrotation Yrotation Zrotation
												End Site
												{
													OFFSET 1.420593 5.237305 0.797056
												}
											}
										}
									}
								}
								JOINT mixamorig:RightHandRing1
								{
									OFFSET -22.246323 0.020569 -3.963762
									CHANNELS 3 Xrotation Yrotation Zrotation
									JOINT mixamorig:RightHandRing2
									{
										OFFSET -6.322128 0.000000 0.000000
										CHANNELS 3 Xrotation Yrotation Zrotation
										JOINT mixamorig:RightHandRing3
										{
											OFFSET -5.900024 0.000000 0.000000
											CHANNELS 3 Xrotation Yrotation Zrotation
											JOINT mixamorig:RightHandRing4
											{
												OFFSET -6.518356 0.000000 0.000000
												CHANNELS 3 Xrotation Yrotation Zrotation
												End Site
												{
													OFFSET 1.636398 6.232697 0.982186
												}
											}
										}
									}
								}
								JOINT mixamorig:RightHandPinky1
								{
									OFFSET -20.411011 -0.303314 -8.561701
									CHANNELS 3 Xrotation Yrotation Zrotation
									JOINT mixamorig:RightHandPinky2
									{
										OFFSET -6.907349 0.000000 0.000000
										CHANNELS 3 Xrotation Yrotation Zrotation
										JOINT mixamorig:RightHandPinky3
										{
											OFFSET -4.623840 0.000000 0.000000
											CHANNELS 3 Xrotation Yrotation Zrotation
											JOINT mixamorig:RightHandPinky4
											{
												OFFSET -5.218353 0.000000 0.000000
												CHANNELS 3 Xrotation Yrotation Zrotation
												End Site
												{
													OFFSET 0.602097 5.118835 0.816273
												}
											}
										}
									}
								}
							}
						}
					}
				}
			}
		}
	}
	JOINT mixamorig:LeftUpLeg
	{
		OFFSET 18.168400 -13.561905 -0.039000
		CHANNELS 3 Xrotation Yrotation Zrotation
		JOINT mixamorig:LeftLeg
		{
			OFFSET 0.577358 -80.825211 -3.695000
			CHANNELS 3 Xrotation Yrotation Zrotation
			JOINT mixamorig:LeftFoot
			{
				OFFSET -0.577356 -83.370262 -6.520700
				CHANNELS 3 Xrotation Yrotation Zrotation
				JOINT mixamorig:LeftToeBase
				{
					OFFSET 0.750401 -20.798306 25.135401
					CHANNELS 3 Xrotation Yrotation Zrotation
					JOINT mixamorig:LeftToe_End
					{
						OFFSET -0.000500 0.001200 19.917799
						CHANNELS 3 Xrotation Yrotation Zrotation
						End Site
						{
							OFFSET 0.000000 19.917805 0.000000
						}
					}
				}
			}
		}
	}
	JOINT mixamorig:RightUpLeg
	{
		OFFSET -18.162500 -13.585098 -0.041000
		CHANNELS 3 Xrotation Yrotation Zrotation
		JOINT mixamorig:RightLeg
		{
			OFFSET -0.595024 -80.945297 -3.631900
			CHANNELS 3 Xrotation Yrotation Zrotation
			JOINT mixamorig:RightFoot
			{
				OFFSET 0.595024 -83.218193 -6.561200
				CHANNELS 3 Xrotation Yrotation Zrotation
				JOINT mixamorig:RightToeBase
				{
					OFFSET -0.753601 -20.807106 25.115000
					CHANNELS 3 Xrotation Yrotation Zrotation
					JOINT mixamorig:RightToe_End
					{
						OFFSET 0.000299 0.001700 19.918200
						CHANNELS 3 Xrotation Yrotation Zrotation
						End Site
						{
							OFFSET 0.000000 19.918203 0.000000
						}
					}
				}
			}
		}
	}
}
MOTION
Frames: 4
Frame Time: 0.033333
-2.892051 194.293442 -13.935284 16.448468 -1.059593 0.551785 11.248831 1.903033 0.710332 8.166145 1.586428 0.857521 8.155603 1.679290 0.800239 -8.916525 0.703126 -3.377076 -40.353406 6.419879 -13.942163 0.000000 -0.000000 0.000001 0.000000 -0.000000 0.000001 0.000000 -0.000000 0.000001 1.383068 -0.667461 -3.315236 -20.882424 -33.092400 -64.622653 0.000013 -111.244910 0.000016 1.628116 18.564509 16.190900 0.214497 1.708554 -14.310069 0.124828 1.307776 -10.904470 0.031181 0.655915 -5.443519 -0.000003 0.000001 -0.000005 0.457008 20.383714 9.392284 8.027489 14.204808 -4.167745 1.388931 4.779877 0.411832 0.000000 -0.000001 0.000001 0.214974 1.710410 -14.326078 0.124464 1.305876 -10.888469 0.031169 0.655927 -5.443539 -0.000000 -0.000001 -0.000001 0.214967 1.710414 -14.326071 0.124464 1.305884 -10.888476 0.031182 0.655923 -5.443529 -0.000003 -0.000001 0.000005 1.204682 5.642604 -13.879143 0.118151 -2.749521 -11.390029 0.031182 0.655913 -5.443534 -0.000003 -0.000002 0.000002 -0.298214 -5.069814 3.678010 -16.628270 28.948179 59.342316 0.000084 116.163541 -0.000074 2.220594 -23.699658 -4.301187 0.238986 -1.810787 15.035466 0.733113 -3.112567 26.500536 0.185564 -1.598823 13.240311 0.000002 0.000001 -0.000000 3.343614 -18.221102 -2.965852 12.237511 -18.165337 1.505013 2.362372 -4.713314 -1.929246 -0.000002 0.000002 -0.000003 0.238992 -1.810784 15.035471 0.733104 -3.112556 26.500538 0.185576 -1.598821 13.240306 -0.000000 0.000001 0.000002 0.238989 -1.810786 15.035470 0.733103 -3.112564 26.500540 0.185572 -1.598837 13.240294 -0.000001 0.000001 -0.000002 0.238993 -1.810780 15.035471 0.733106 -3.112569 26.500545 0.185571 -1.598825 13.240311 0.000000 0.000002 -0.000001 -41.920750 5.640751 10.499176 25.741176 9.922316 -2.194832 1.986885 9.922795 -2.923107 -0.002227 0.000001 -0.004282 0.000000 -0.000001 -0.000000 -45.520547 -21.256573 -10.270530 27.975246 -10.065688 -5.525937 -1.359013 -4.254745 7.123116 -0.000000 0.000008 0.000003 -0.000000 -0.000001 0.000000 
-2.908956 194.325287 -13.919098 16.357820 -0.998674 0.402748 11.273962 1.929534 0.591506 8.193761 1.609655 0.767227 8.183413 1.697945 0.710034 -8.830027 0.691383 -3.371311 -40.131145 6.477373 -14.210178 -0.000000 0.000000 0.000000 -0.000000 0.000000 0.000000 -0.000000 0.000000 0.000000 1.410246 -0.768115 -3.086291 -21.125874 -32.707300 -64.929267 0.000050 -111.118428 0.000054 1.828963 18.488605 15.645928 0.214495 1.708554 -14.310069 0.124833 1.307774 -10.904472 0.031181 0.655918 -5.443522 0.000001 0.000001 -0.000001 0.457011 20.383713 9.392282 8.027483 14.204812 -4.167746 1.388934 4.779878 0.411835 0.000001 -0.000001 -0.000000 0.214971 1.710411 -14.326076 0.124459 1.305878 -10.888471 0.031169 0.655923 -5.443535 -0.000000 -0.000003 -0.000000 0.214969 1.710413 -14.326071 0.124468 1.305886 -10.888477 0.031186 0.655919 -5.443522 0.000001 -0.000002 0.000001 1.204681 5.642602 -13.879140 0.118152 -2.749521 -11.390027 0.031183 0.655913 -5.443534 0.000001 0.000000 -0.000001 -0.307888 -5.093790 3.674281 -16.371832 28.918693 59.144964 -0.000021 116.110347 -0.000003 1.979139 -23.459145 -4.655367 0.238986 -1.810783 15.035464 0.733120 -3.112572 26.500533 0.185561 -1.598823 13.240311 0.000000 -0.000000 -0.000000 3.343610 -18.221101 -2.965850 12.237503 -18.165342 1.505008 2.362365 -4.713315 -1.929247 -0.000004 0.000002 -0.000003 0.238993 -1.810785 15.035471 0.733109 -3.112555 26.500536 0.185574 -1.598823 13.240301 0.000001 0.000003 0.000001 0.238988 -1.810786 15.035471 0.733106 -3.112565 26.500547 0.185573 -1.598836 13.240294 -0.000001 0.000001 -0.000001 0.238988 -1.810777 15.035473 0.733106 -3.112571 26.500545 0.185569 -1.598821 13.240309 -0.000001 0.000002 -0.000000 -41.873581 5.597572 10.668915 25.790470 9.915205 -2.292284 1.958224 9.800264 -2.832418 -0.002282 -0.000001 -0.004370 -0.000000 -0.000001 -0.000000 -45.269073 -21.303884 -10.099198 27.835401 -10.064817 -5.530510 -1.319315 -4.387865 7.074054 -0.000000 0.000009 0.000002 -0.000000 -0.000001 -0.000000 
-2.896879 194.352493 -13.886936 16.295716 -0.994614 0.278978 11.286814 1.919246 0.501708 8.211635 1.602200 0.693228 8.202220 1.682848 0.637637 -8.744829 0.724674 -3.495066 -39.923385 6.610663 -14.422752 -0.000000 0.000000 -0.000000 -0.000000 0.000000 -0.000000 -0.000000 0.000000 -0.000000 1.436423 -0.857909 -2.965850 -21.287043 -32.306487 -65.129843 0.000015 -111.027122 -0.000003 2.072507 18.459160 15.075677 0.214498 1.708556 -14.310067 0.124831 1.307777 -10.904476 0.031178 0.655917 -5.443520 0.000002 0.000000 -0.000001 0.457009 20.383714 9.392281 8.027487 14.204811 -4.167746 1.388931 4.779876 0.411836 -0.000001 0.000001 -0.000003 0.214975 1.710410 -14.326078 0.124459 1.305876 -10.888469 0.031166 0.655924 -5.443539 -0.000001 -0.000004 0.000001 0.214973 1.710416 -14.326072 0.124466 1.305882 -10.888475 0.031186 0.655920 -5.443524 -0.000001 0.000002 0.000002 1.204685 5.642605 -13.879139 0.118152 -2.749520 -11.390029 0.031180 0.655915 -5.443531 0.000002 0.000001 0.000003 -0.310080 -5.052687 3.518965 -16.117011 28.874536 59.039780 0.000056 116.040789 -0.000053 1.768797 -23.181051 -5.062707 0.238987 -1.810786 15.035471 0.733117 -3.112571 26.500538 0.185564 -1.598818 13.240314 0.000002 0.000000 0.000001 3.343609 -18.221099 -2.965854 12.237505 -18.165337 1.505016 2.362368 -4.713312 -1.929249 0.000002 0.000002 -0.000002 0.238989 -1.810781 15.035476 0.733108 -3.112557 26.500535 0.185575 -1.598826 13.240304 0.000002 0.000001 0.000002 0.238984 -1.810785 15.035473 0.733107 -3.112569 26.500543 0.185571 -1.598836 13.240297 -0.000000 0.000001 0.000002 0.238985 -1.810776 15.035473 0.733108 -3.112571 26.500543 0.185571 -1.598825 13.240310 0.000000 0.000000 0.000001 -41.838966 5.486025 10.829207 25.875323 9.907349 -2.432467 1.900821 9.804865 -2.725692 -0.002371 -0.000004 -0.004529 0.000000 -0.000004 -0.000000 -45.072275 -21.359530 -9.945958 27.707339 -10.063286 -5.540480 -1.263341 -4.445421 7.020882 -0.000000 0.000006 0.000003 -0.000000 -0.000003 0.000000 
-2.864453 194.373734 -13.835888 16.250321 -1.038871 0.180747 11.288449 1.882117 0.437927 8.218765 1.571440 0.633159 8.210876 1.642220 0.580194 -8.676460 0.794125 -3.725958 -39.738847 6.791471 -14.579476 0.000000 0.000002 -0.000001 0.000000 0.000002 -0.000001 0.000000 0.000002 -0.000001 1.459592 -0.933628 -2.936994 -21.372012 -31.885543 -65.237152 0.000057 -110.978164 0.000053 2.347885 18.490792 14.484849 0.214497 1.708554 -14.310069 0.124829 1.307780 -10.904479 0.031174 0.655916 -5.443524 -0.000004 0.000001 -0.000004 0.457009 20.383713 9.392283 8.027489 14.204810 -4.167742 1.388937 4.779875 0.411837 0.000002 -0.000001 -0.000001 0.214974 1.710410 -14.326074 0.124464 1.305880 -10.888472 0.031166 0.655921 -5.443534 -0.000001 -0.000001 -0.000001 0.214976 1.710415 -14.326071 0.124462 1.305883 -10.888475 0.031185 0.655922 -5.443523 0.000000 -0.000001 -0.000000 1.204687 5.642603 -13.879142 0.118155 -2.749518 -11.390027 0.031179 0.655910 -5.443523 -0.000001 0.000001 -0.000002 -0.303673 -4.942769 3.198607 -15.876944 28.827162 59.044431 0.000100 115.951955 -0.000081 1.601661 -22.869782 -5.513354 0.238986 -1.810786 15.035470 0.733120 -3.112569 26.500535 0.185562 -1.598823 13.240313 0.000000 -0.000002 -0.000001 3.343612 -18.221101 -2.965850 12.237509 -18.165339 1.505014 2.362367 -4.713312 -1.929251 -0.000008 0.000004 -0.000003 0.238989 -1.810785 15.035475 0.733107 -3.112557 26.500536 0.185576 -1.598827 13.240306 0.000001 -0.000001 0.000000 0.238989 -1.810786 15.035470 0.733104 -3.112563 26.500545 0.185572 -1.598838 13.240298 -0.000001 0.000001 0.000002 0.238987 -1.810778 15.035473 0.733107 -3.112569 26.500541 0.185568 -1.598826 13.240311 0.000000 0.000001 0.000000 -41.816768 5.364171 10.975087 25.993311 9.899593 -2.572670 1.816481 9.873319 -2.617051 -0.002434 -0.000015 -0.004671 0.000000 0.000001 -0.000000 -44.924712 -21.431918 -9.818224 27.603701 -10.061164 -5.558093 -1.199971 -4.424285 6.967715 -0.000000 0.000006 0.000003 -0.000000 -0.000001 0.000000 
